<mxfile host="app.diagrams.net" agent="Mozilla/5.0 (Windows NT 10.0; Win64; x64) AppleWebKit/537.36 (KHTML, like Gecko) Chrome/128.0.0.0 Safari/537.36 OPR/114.0.0.0" version="26.0.4">
  <diagram name="PÃ¡gina-1" id="EQY7rx08GIGifhaFdDs0">
    <mxGraphModel dx="545" dy="1867" grid="1" gridSize="10" guides="1" tooltips="1" connect="1" arrows="1" fold="1" page="1" pageScale="1" pageWidth="827" pageHeight="1169" math="0" shadow="0">
      <root>
        <mxCell id="0" />
        <mxCell id="1" parent="0" />
        <mxCell id="6GOztxUwA011YL0eF0oX-30" style="edgeStyle=orthogonalEdgeStyle;rounded=0;orthogonalLoop=1;jettySize=auto;html=1;exitX=0.5;exitY=1;exitDx=0;exitDy=0;entryX=0.5;entryY=0;entryDx=0;entryDy=0;" edge="1" parent="1" source="6GOztxUwA011YL0eF0oX-1" target="6GOztxUwA011YL0eF0oX-3">
          <mxGeometry relative="1" as="geometry" />
        </mxCell>
        <mxCell id="6GOztxUwA011YL0eF0oX-1" value="Inicio" style="ellipse;whiteSpace=wrap;html=1;" vertex="1" parent="1">
          <mxGeometry x="210" y="-20" width="120" height="70" as="geometry" />
        </mxCell>
        <mxCell id="6GOztxUwA011YL0eF0oX-2" value="Fim" style="ellipse;whiteSpace=wrap;html=1;" vertex="1" parent="1">
          <mxGeometry x="210" y="780" width="120" height="70" as="geometry" />
        </mxCell>
        <mxCell id="6GOztxUwA011YL0eF0oX-28" style="edgeStyle=orthogonalEdgeStyle;rounded=0;orthogonalLoop=1;jettySize=auto;html=1;exitX=0.5;exitY=1;exitDx=0;exitDy=0;entryX=0.5;entryY=0;entryDx=0;entryDy=0;" edge="1" parent="1" source="6GOztxUwA011YL0eF0oX-3" target="6GOztxUwA011YL0eF0oX-25">
          <mxGeometry relative="1" as="geometry" />
        </mxCell>
        <mxCell id="6GOztxUwA011YL0eF0oX-3" value="produtos[contador]" style="shape=parallelogram;html=1;strokeWidth=2;perimeter=parallelogramPerimeter;whiteSpace=wrap;rounded=1;arcSize=12;size=0.23;" vertex="1" parent="1">
          <mxGeometry x="195" y="80" width="150" height="50" as="geometry" />
        </mxCell>
        <mxCell id="6GOztxUwA011YL0eF0oX-29" style="edgeStyle=orthogonalEdgeStyle;rounded=0;orthogonalLoop=1;jettySize=auto;html=1;exitX=0.5;exitY=1;exitDx=0;exitDy=0;entryX=0.5;entryY=0;entryDx=0;entryDy=0;" edge="1" parent="1" source="6GOztxUwA011YL0eF0oX-25" target="6GOztxUwA011YL0eF0oX-26">
          <mxGeometry relative="1" as="geometry" />
        </mxCell>
        <mxCell id="6GOztxUwA011YL0eF0oX-25" value="valores[contador]" style="shape=parallelogram;html=1;strokeWidth=2;perimeter=parallelogramPerimeter;whiteSpace=wrap;rounded=1;arcSize=12;size=0.23;" vertex="1" parent="1">
          <mxGeometry x="192.5" y="180" width="155" height="50" as="geometry" />
        </mxCell>
        <mxCell id="6GOztxUwA011YL0eF0oX-37" style="edgeStyle=orthogonalEdgeStyle;rounded=0;orthogonalLoop=1;jettySize=auto;html=1;exitX=0.5;exitY=1;exitDx=0;exitDy=0;entryX=0.5;entryY=0;entryDx=0;entryDy=0;" edge="1" parent="1" source="6GOztxUwA011YL0eF0oX-26" target="6GOztxUwA011YL0eF0oX-36">
          <mxGeometry relative="1" as="geometry" />
        </mxCell>
        <mxCell id="6GOztxUwA011YL0eF0oX-26" value="loop" style="shape=parallelogram;html=1;strokeWidth=2;perimeter=parallelogramPerimeter;whiteSpace=wrap;rounded=1;arcSize=12;size=0.23;" vertex="1" parent="1">
          <mxGeometry x="192.5" y="280" width="155" height="50" as="geometry" />
        </mxCell>
        <mxCell id="6GOztxUwA011YL0eF0oX-34" style="edgeStyle=orthogonalEdgeStyle;rounded=0;orthogonalLoop=1;jettySize=auto;html=1;exitX=0;exitY=0.5;exitDx=0;exitDy=0;exitPerimeter=0;entryX=0;entryY=0.5;entryDx=0;entryDy=0;" edge="1" parent="1" source="6GOztxUwA011YL0eF0oX-32" target="6GOztxUwA011YL0eF0oX-3">
          <mxGeometry relative="1" as="geometry">
            <mxPoint x="130" y="40" as="targetPoint" />
            <Array as="points">
              <mxPoint x="140" y="515" />
              <mxPoint x="140" y="105" />
            </Array>
          </mxGeometry>
        </mxCell>
        <mxCell id="6GOztxUwA011YL0eF0oX-35" value="V" style="edgeLabel;html=1;align=center;verticalAlign=middle;resizable=0;points=[];" vertex="1" connectable="0" parent="6GOztxUwA011YL0eF0oX-34">
          <mxGeometry x="-0.688" y="1" relative="1" as="geometry">
            <mxPoint x="-19" y="-180" as="offset" />
          </mxGeometry>
        </mxCell>
        <mxCell id="6GOztxUwA011YL0eF0oX-40" style="edgeStyle=orthogonalEdgeStyle;rounded=0;orthogonalLoop=1;jettySize=auto;html=1;exitX=0.5;exitY=1;exitDx=0;exitDy=0;exitPerimeter=0;entryX=0.5;entryY=0;entryDx=0;entryDy=0;" edge="1" parent="1" source="6GOztxUwA011YL0eF0oX-32" target="6GOztxUwA011YL0eF0oX-39">
          <mxGeometry relative="1" as="geometry" />
        </mxCell>
        <mxCell id="6GOztxUwA011YL0eF0oX-32" value="loop == 1" style="strokeWidth=2;html=1;shape=mxgraph.flowchart.decision;whiteSpace=wrap;" vertex="1" parent="1">
          <mxGeometry x="200" y="480" width="140" height="70" as="geometry" />
        </mxCell>
        <mxCell id="6GOztxUwA011YL0eF0oX-36" value="contador++" style="rounded=1;whiteSpace=wrap;html=1;absoluteArcSize=1;arcSize=14;strokeWidth=2;" vertex="1" parent="1">
          <mxGeometry x="210" y="380" width="120" height="50" as="geometry" />
        </mxCell>
        <mxCell id="6GOztxUwA011YL0eF0oX-38" style="edgeStyle=orthogonalEdgeStyle;rounded=0;orthogonalLoop=1;jettySize=auto;html=1;exitX=0.5;exitY=1;exitDx=0;exitDy=0;entryX=0.5;entryY=0;entryDx=0;entryDy=0;entryPerimeter=0;" edge="1" parent="1" source="6GOztxUwA011YL0eF0oX-36" target="6GOztxUwA011YL0eF0oX-32">
          <mxGeometry relative="1" as="geometry" />
        </mxCell>
        <mxCell id="6GOztxUwA011YL0eF0oX-46" style="edgeStyle=orthogonalEdgeStyle;rounded=0;orthogonalLoop=1;jettySize=auto;html=1;exitX=0;exitY=0.5;exitDx=0;exitDy=0;entryX=0;entryY=0.5;entryDx=0;entryDy=0;" edge="1" parent="1" source="6GOztxUwA011YL0eF0oX-39" target="6GOztxUwA011YL0eF0oX-2">
          <mxGeometry relative="1" as="geometry" />
        </mxCell>
        <mxCell id="6GOztxUwA011YL0eF0oX-47" value="F" style="edgeLabel;html=1;align=center;verticalAlign=middle;resizable=0;points=[];" vertex="1" connectable="0" parent="6GOztxUwA011YL0eF0oX-46">
          <mxGeometry x="-0.096" y="3" relative="1" as="geometry">
            <mxPoint x="-23" y="12" as="offset" />
          </mxGeometry>
        </mxCell>
        <mxCell id="6GOztxUwA011YL0eF0oX-39" value="i = 0; &amp;lt; contador; +1" style="rounded=1;whiteSpace=wrap;html=1;absoluteArcSize=1;arcSize=14;strokeWidth=2;" vertex="1" parent="1">
          <mxGeometry x="210" y="580" width="120" height="50" as="geometry" />
        </mxCell>
        <mxCell id="6GOztxUwA011YL0eF0oX-43" style="edgeStyle=orthogonalEdgeStyle;rounded=0;orthogonalLoop=1;jettySize=auto;html=1;exitX=1;exitY=0.5;exitDx=0;exitDy=0;exitPerimeter=0;entryX=1;entryY=0.5;entryDx=0;entryDy=0;" edge="1" parent="1" source="6GOztxUwA011YL0eF0oX-41" target="6GOztxUwA011YL0eF0oX-39">
          <mxGeometry relative="1" as="geometry" />
        </mxCell>
        <mxCell id="6GOztxUwA011YL0eF0oX-41" value="produtos[1]&lt;div&gt;valores[i]&lt;/div&gt;" style="strokeWidth=2;html=1;shape=mxgraph.flowchart.display;whiteSpace=wrap;" vertex="1" parent="1">
          <mxGeometry x="220" y="680" width="100" height="60" as="geometry" />
        </mxCell>
        <mxCell id="6GOztxUwA011YL0eF0oX-42" style="edgeStyle=orthogonalEdgeStyle;rounded=0;orthogonalLoop=1;jettySize=auto;html=1;exitX=0.5;exitY=1;exitDx=0;exitDy=0;entryX=0.5;entryY=0;entryDx=0;entryDy=0;entryPerimeter=0;" edge="1" parent="1" source="6GOztxUwA011YL0eF0oX-39" target="6GOztxUwA011YL0eF0oX-41">
          <mxGeometry relative="1" as="geometry" />
        </mxCell>
        <mxCell id="6GOztxUwA011YL0eF0oX-44" value="&lt;span style=&quot;color: rgba(0, 0, 0, 0); font-family: monospace; font-size: 0px; text-align: start; background-color: rgb(251, 251, 251);&quot;&gt;%3CmxGraphModel%3E%3Croot%3E%3CmxCell%20id%3D%220%22%2F%3E%3CmxCell%20id%3D%221%22%20parent%3D%220%22%2F%3E%3CmxCell%20id%3D%222%22%20value%3D%22contador%2B%2B%22%20style%3D%22rounded%3D1%3BwhiteSpace%3Dwrap%3Bhtml%3D1%3BabsoluteArcSize%3D1%3BarcSize%3D14%3BstrokeWidth%3D2%3B%22%20vertex%3D%221%22%20parent%3D%221%22%3E%3CmxGeometry%20x%3D%22210%22%20y%3D%22380%22%20width%3D%22120%22%20height%3D%2250%22%20as%3D%22geometry%22%2F%3E%3C%2FmxCell%3E%3C%2Froot%3E%3C%2FmxGraphModel%3E&lt;/span&gt;&lt;span style=&quot;color: rgba(0, 0, 0, 0); font-family: monospace; font-size: 0px; text-align: start; background-color: rgb(251, 251, 251);&quot;&gt;%3CmxGraphModel%3E%3Croot%3E%3CmxCell%20id%3D%220%22%2F%3E%3CmxCell%20id%3D%221%22%20parent%3D%220%22%2F%3E%3CmxCell%20id%3D%222%22%20value%3D%22contador%2B%2B%22%20style%3D%22rounded%3D1%3BwhiteSpace%3Dwrap%3Bhtml%3D1%3BabsoluteArcSize%3D1%3BarcSize%3D14%3BstrokeWidth%3D2%3B%22%20vertex%3D%221%22%20parent%3D%221%22%3E%3CmxGeometry%20x%3D%22210%22%20y%3D%22380%22%20width%3D%22120%22%20height%3D%2250%22%20as%3D%22geometry%22%2F%3E%3C%2FmxCell%3E%3C%2Froot%3E%3C%2FmxGraphModel%3E&lt;/span&gt;" style="edgeLabel;html=1;align=center;verticalAlign=middle;resizable=0;points=[];" vertex="1" connectable="0" parent="6GOztxUwA011YL0eF0oX-42">
          <mxGeometry x="-0.04" y="4" relative="1" as="geometry">
            <mxPoint as="offset" />
          </mxGeometry>
        </mxCell>
        <mxCell id="6GOztxUwA011YL0eF0oX-45" value="V" style="edgeLabel;html=1;align=center;verticalAlign=middle;resizable=0;points=[];" vertex="1" connectable="0" parent="6GOztxUwA011YL0eF0oX-42">
          <mxGeometry x="-0.04" y="5" relative="1" as="geometry">
            <mxPoint x="15" as="offset" />
          </mxGeometry>
        </mxCell>
      </root>
    </mxGraphModel>
  </diagram>
</mxfile>
